<svg xmlns="http://www.w3.org/2000/svg" xmlns:xlink="http://www.w3.org/1999/xlink" width="200" zoomAndPan="magnify" viewBox="0 0 150 149.999998" height="200" preserveAspectRatio="xMidYMid meet" version="1.0"><defs><clipPath id="830939d493"><path d="M 10.886719 10.886719 L 139.113281 10.886719 L 139.113281 139.113281 L 10.886719 139.113281 Z M 10.886719 10.886719 " clip-rule="nonzero"/></clipPath><clipPath id="e5d57beb20"><path d="M 75 10.886719 C 39.589844 10.886719 10.886719 39.589844 10.886719 75 C 10.886719 110.410156 39.589844 139.113281 75 139.113281 C 110.410156 139.113281 139.113281 110.410156 139.113281 75 C 139.113281 39.589844 110.410156 10.886719 75 10.886719 Z M 75 10.886719 " clip-rule="nonzero"/></clipPath></defs><g clip-path="url(#830939d493)"><g clip-path="url(#e5d57beb20)"><path fill="#000000" d="M 10.886719 10.886719 L 139.113281 10.886719 L 139.113281 139.113281 L 10.886719 139.113281 Z M 10.886719 10.886719 " fill-opacity="1" fill-rule="nonzero"/></g></g><path stroke-linecap="butt" transform="matrix(0.53033, -0.53033, 0.53033, 0.53033, 49.613708, 96.138623)" fill="none" stroke-linejoin="miter" d="M -0.00229 4.001058 L 83.730943 4.001058 " stroke="#ffffff" stroke-width="8" stroke-opacity="1" stroke-miterlimit="4"/><path stroke-linecap="round" transform="matrix(0.53033, -0.53033, 0.53033, 0.53033, 49.613708, 96.138623)" fill="none" stroke-linejoin="round" d="M 67.732651 -7.99766 L 83.730943 4.001058 L 67.732651 15.999777 " stroke="#ffffff" stroke-width="8" stroke-opacity="1" stroke-miterlimit="4"/></svg>