<svg xmlns="http://www.w3.org/2000/svg" xmlns:xlink="http://www.w3.org/1999/xlink" width="500" zoomAndPan="magnify" viewBox="0 0 375 374.999991" height="500" preserveAspectRatio="xMidYMid meet" version="1.0"><defs><g/><clipPath id="320dfe0e18"><path d="M 219.441406 105.589844 L 361.191406 105.589844 L 361.191406 269.089844 L 219.441406 269.089844 Z M 219.441406 105.589844 " clip-rule="nonzero"/></clipPath></defs><g clip-path="url(#320dfe0e18)"><path fill="#000000" d="M 219.308594 105.589844 L 361.175781 187.496094 L 219.308594 269.40625 Z M 219.308594 105.589844 " fill-opacity="1" fill-rule="nonzero"/></g><g fill="#000000" fill-opacity="1"><g transform="translate(13.802238, 215.664305)"><g><path d="M 17.609375 -65.53125 L 17.609375 -6.359375 L 49.171875 -6.359375 L 49.171875 0 L 9.90625 0 L 9.90625 -65.53125 Z M 17.609375 -65.53125 "/></g></g></g><g fill="#000000" fill-opacity="1"><g transform="translate(65.751025, 215.664305)"><g><path d="M 33.796875 0.9375 C 25.753906 0.9375 19.671875 -1.097656 15.546875 -5.171875 C 11.429688 -9.253906 9.375 -15.300781 9.375 -23.3125 L 9.375 -65.53125 L 17.03125 -65.53125 L 17.03125 -23.390625 C 17.03125 -17.660156 18.410156 -13.359375 21.171875 -10.484375 C 23.941406 -7.617188 28.148438 -6.1875 33.796875 -6.1875 C 44.972656 -6.1875 50.5625 -11.921875 50.5625 -23.390625 L 50.5625 -65.53125 L 58.21875 -65.53125 L 58.21875 -23.3125 C 58.21875 -15.300781 56.15625 -9.253906 52.03125 -5.171875 C 47.914062 -1.097656 41.835938 0.9375 33.796875 0.9375 Z M 33.796875 0.9375 "/></g></g></g><g fill="#000000" fill-opacity="1"><g transform="translate(133.297886, 215.664305)"><g><path d="M 17.03125 0 L 9.90625 0 L 9.90625 -65.53125 L 21.328125 -65.53125 L 41.1875 -10.046875 L 42.140625 -10.046875 L 61.984375 -65.53125 L 73.015625 -65.53125 L 73.015625 0 L 65.703125 0 L 65.703125 -53.46875 L 64.59375 -53.65625 L 45.21875 0 L 37.5625 0 L 18.15625 -53.65625 L 17.03125 -53.46875 Z M 17.03125 0 "/></g></g></g><g fill="#ffffff" fill-opacity="1"><g transform="translate(216.290457, 215.664305)"><g><path d="M 17.609375 0 L 9.90625 0 L 9.90625 -65.53125 L 17.609375 -65.53125 Z M 17.609375 0 "/></g></g></g><g fill="#ffffff" fill-opacity="1"><g transform="translate(243.85605, 215.664305)"><g><path d="M 17.4375 0 L 9.90625 0 L 9.90625 -65.53125 L 19.359375 -65.53125 L 51.328125 -15.46875 L 52.4375 -15.640625 L 52.4375 -65.53125 L 59.921875 -65.53125 L 59.921875 0 L 51.859375 0 L 18.5625 -53.5625 L 17.4375 -53.390625 Z M 17.4375 0 "/></g></g></g></svg>