<svg xmlns="http://www.w3.org/2000/svg" xmlns:xlink="http://www.w3.org/1999/xlink" width="500" zoomAndPan="magnify" viewBox="0 0 375 374.999991" height="500" preserveAspectRatio="xMidYMid meet" version="1.0"><defs><g/><clipPath id="7e3b78cddf"><path d="M 219.441406 105.589844 L 361.191406 105.589844 L 361.191406 269.089844 L 219.441406 269.089844 Z M 219.441406 105.589844 " clip-rule="nonzero"/></clipPath></defs><g clip-path="url(#7e3b78cddf)"><path fill="#ffffff" d="M 219.460938 105.589844 L 361.175781 187.339844 L 219.460938 269.089844 Z M 219.460938 105.589844 " fill-opacity="1" fill-rule="nonzero"/></g><g fill="#ffffff" fill-opacity="1"><g transform="translate(13.825675, 220.726992)"><g><path d="M 17.625 -65.546875 L 17.625 -6.359375 L 49.171875 -6.359375 L 49.171875 0 L 9.90625 0 L 9.90625 -65.546875 Z M 17.625 -65.546875 "/></g></g></g><g fill="#ffffff" fill-opacity="1"><g transform="translate(65.779594, 220.726992)"><g><path d="M 33.796875 0.9375 C 25.765625 0.9375 19.6875 -1.097656 15.5625 -5.171875 C 11.4375 -9.253906 9.375 -15.300781 9.375 -23.3125 L 9.375 -65.546875 L 17.03125 -65.546875 L 17.03125 -23.40625 C 17.03125 -17.664062 18.410156 -13.359375 21.171875 -10.484375 C 23.941406 -7.617188 28.148438 -6.1875 33.796875 -6.1875 C 44.972656 -6.1875 50.5625 -11.925781 50.5625 -23.40625 L 50.5625 -65.546875 L 58.234375 -65.546875 L 58.234375 -23.3125 C 58.234375 -15.300781 56.171875 -9.253906 52.046875 -5.171875 C 47.921875 -1.097656 41.835938 0.9375 33.796875 0.9375 Z M 33.796875 0.9375 "/></g></g></g><g fill="#ffffff" fill-opacity="1"><g transform="translate(133.333136, 220.726992)"><g><path d="M 17.03125 0 L 9.90625 0 L 9.90625 -65.546875 L 21.34375 -65.546875 L 41.203125 -10.046875 L 42.140625 -10.046875 L 62 -65.546875 L 73.03125 -65.546875 L 73.03125 0 L 65.71875 0 L 65.71875 -53.484375 L 64.59375 -53.65625 L 45.234375 0 L 37.5625 0 L 18.15625 -53.65625 L 17.03125 -53.484375 Z M 17.03125 0 "/></g></g></g><g fill="#000000" fill-opacity="1"><g transform="translate(216.313943, 220.726992)"><g><path d="M 17.625 0 L 9.90625 0 L 9.90625 -65.546875 L 17.625 -65.546875 Z M 17.625 0 "/></g></g></g><g fill="#000000" fill-opacity="1"><g transform="translate(243.882243, 220.726992)"><g><path d="M 17.4375 0 L 9.90625 0 L 9.90625 -65.546875 L 19.359375 -65.546875 L 51.328125 -15.46875 L 52.453125 -15.640625 L 52.453125 -65.546875 L 59.9375 -65.546875 L 59.9375 0 L 51.875 0 L 18.5625 -53.578125 L 17.4375 -53.390625 Z M 17.4375 0 "/></g></g></g></svg>